/* XPM */
static char *result[] = {
/* columns rows colors chars-per-pixel */
"50 50 10 1 ",
"  c black",
". c #15081D",
"X c #1E1A21",
"o c #2D0D32",
"O c #2B262E",
"+ c #3A343D",
"@ c #401433",
"# c #5D5461",
"$ c #912030",
"% c white",
/* pixels */
"..................................................",
"..................................................",
"..................................................",
"..................................................",
"..................................................",
".......o...............................o..........",
"......o@o....       ..%%%%%%%.......o..@.    .....",
".......o...   ++++X .%%.....%%%....o...o  #+  ....",
"..........  ##+++XX %%........%%......o  ##++  ...",
".........  ##++++X %%..........%.....o  ##++++ ...",
"........  ##++++XX%%...........%..o@o@ ++++++++ ..",
"........ ++++O++X%%............%%....o +++++X++ ..",
".......  +++OO++X%..............%..... ++X++X++ ..",
"....... +++OO++XX%......        % .o.. ++++X+++ ..",
".......  ++++++XX%.....  ##+++++% ..o. +++XX+++X .",
"........  ++++XXX%....  ##++++++% ....  +++++++X .",
".........  +XXXX %...  ##++++++X+ ..... +++++++X .",
"...........      %..  ##++++++XX+  ....  +++++XX .",
".................%.  ##++++++++++X .....  ++++X  .",
".................%. ##+++++X+++++X ......  ++XX ..",
".................%. ++++++XX+++++X  ...... XXXX ..",
".................%. ++%%%%%%%++++XX ......  XX  ..",
".................%. +%%+++++%%%+++X ........  ....",
"......oo....    .%. %%++++++++%%++X ..............",
".....o@@o.   ++  %..% +++++++++%++X ..............",
"....o@$$  ###+++ %.%%.  +++++++%%XX ..............",
".....o@  ##++++++%%.....  +XXX++%XX ..............",
"......  ##+++++++%% ....oo   XXX%X  .......o......",
"...... ##++++++++%++  ....o@  XX%  .......o@o.....",
".....  #+++++++++%+++  ....o.   % .........o......",
"..... +++++++++++%+++++  ..o..o.%.....      ......",
"..... +++++++++++%+++++++  .....%....  ##+++  ....",
"..... +++++O+++#X%+++++O++  ....%...  ##+++++  ...",
"..... ++++OO++#XX%+++++O++X ....%..  ##+++++++ ...",
".....  ++OO++++X+%++++++++X  ...%.. ##+++++++X ...",
"...... ++O+++++++%++++++++XX ..%%.. #++++++++X ...",
"......  +++++++++%++#X++++XX  .%..  ++++++++XX ...",
".......  ++++++++%%+#X+++++XX .%.. +++++O+++XX ...",
"........ ++++++++#%#X+++++++X %%.  +++++O+++X  ...",
".........  ++++++X%%+++++++XX%%.. +++++OO++XX ....",
"..........  +++++++%%+++++XX%%..  ++++O++++X  ....",
"...........        X%%++XXX%%..  +++++++++XX .....",
"..................  X%%%%%%%... ++++++++XXX ......",
"....................       ....  ++++XXXX  .......",
"................................          ........",
"..................................................",
"..................................................",
"..................................................",
"..................................................",
".................................................."
};
