/* XPM */
static char *_86bddd9e5c4409fe45d4d76a9f2b237CNk4OrBfzQsG8qHs[] = {
/* columns rows colors chars-per-pixel */
"50 50 5 1 ",
"  c #15081D",
". c #2D0D32",
"X c #401433",
"o c #912030",
"O c #E9847F",
/* pixels */
"                                                  ",
"                                                  ",
"                                                  ",
"                                                  ",
"                                                  ",
"       .                               .          ",
"      .X.                           .  X  .       ",
"       .                           .   .   .      ",
"                                      .X.         ",
"                                     .XoX.        ",
"                                  .X.XoOoX.X.     ",
"                                     .XoX.        ",
"                                      .X.         ",
"                                   .   .   .      ",
"                                    .  X  .       ",
"                                       .          ",
"                                                  ",
"                                                  ",
"                                                  ",
"                                                  ",
"                                                  ",
"                                                  ",
"                                                  ",
"      ..                                          ",
"     .XX.               .  .  .                   ",
"    .XooX.                 .                      ",
"     .XX.                 .X.                     ",
"      ..                ..XoX..            .      ",
"                          .X.             .X.     ",
"                           .               .      ",
"                        .  .  .                   ",
"                                                  ",
"                                                  ",
"                                                  ",
"                                                  ",
"                                                  ",
"            .                                     ",
"           .X.                                    ",
"          .XoX.                                   ",
"           .X.                                    ",
"            .                                     ",
"                                                  ",
"                                     ..           ",
"                                                  ",
"                                                  ",
"                                                  ",
"                                                  ",
"                                                  ",
"                                                  ",
"                                                  "
};
