/* XPM */
static char *_83df60b1a8a4926ccee7c783427f3adP8Bi1r6QMoPsNk0l[] = {
/* columns rows colors chars-per-pixel */
"50 50 4 1 ",
"  c None",
". c #000819",
"X c #FFF200",
"o c #FFF765",
/* pixels */
"                                                  ",
"                                                  ",
"                                                  ",
"                                                  ",
"                                                  ",
"                                                  ",
"                                                  ",
"                                                  ",
"                                                  ",
"                                                  ",
"                                                  ",
"                                                  ",
"                                                  ",
"                     ........                     ",
"                   ..XXXXXXXX..                   ",
"                  .XXXXXXXXXXXX.                  ",
"                 .XXXXXXXXXXXXXX.                 ",
"                .XXXXXXXXXXXXXXXX.                ",
"               .XXXXooXXXXXXXXXXXX.               ",
"              .XXXXooooXXXXXXXXXXXX.              ",
"              .XXXXooooXXXXXXXXXXXX.              ",
"             .XXXXXXooXXXXXXXXXXXXXX.             ",
"             .XXXXXXXXXXXXXXXXXXXXXX.             ",
"             .XXXXXXXXXXXXXXXXXXXXXX.             ",
"             .XXXXXXXXXXXXXXXXXXXXXX.             ",
"             .XXXXXXXXXXXXXXXXXXXXXX.             ",
"             .XXXXXXXXXXXXXXXXXXXXXX.             ",
"             .XXXXXXXXXXXXXXXXXXXXXX.             ",
"             .XXXXXXXXXXXXXXXXXXXXXX.             ",
"              .XXXXXXXXXXXXXXXXXXXX.              ",
"              .XXXXXXXXXXXXXXXXXXXX.              ",
"               .XXXXXXXXXXXXXXXXXX.               ",
"                .XXXXXXXXXXXXXXXX.                ",
"                 .XXXXXXXXXXXXXX.                 ",
"                  .XXXXXXXXXXXX.                  ",
"                   ..XXXXXXXX..                   ",
"                     ........                     ",
"                                                  ",
"                                                  ",
"                                                  ",
"                                                  ",
"                                                  ",
"                                                  ",
"                                                  ",
"                                                  ",
"                                                  ",
"                                                  ",
"                                                  ",
"                                                  ",
"                                                  "
};
