/* XPM */
static char *_e040d8c962b4833f0a9d4b10ee657bfjK2Ebk1i5iEL3t5l[] = {
/* columns rows colors chars-per-pixel */
"50 50 16 1 ",
"  c black",
". c #15081D",
"X c #1D1D1D",
"o c #1F082E",
"O c #2D0D32",
"+ c #401433",
"@ c #005004",
"# c #006A05",
"$ c #301343",
"% c #4B2266",
"& c #555755",
"* c #912030",
"= c #008807",
"- c #11A218",
"; c #E9847F",
": c #8E8E8E",
/* pixels */
"..................................................",
"..................................................",
"..................................................",
"..................................................",
"..................................................",
".......O...............................O..........",
"......O+O...........................O..+..O.......",
".......O...........................O...O...O......",
"......................................O+O.........",
".....................      ..........O+*+O........",
"..................... :&&X .......O+O+*;*+O+O.....",
"................                .....O+*+O........",
"................ %%%%$$$$$$$$$$ ......O+O.........",
"................ %            $ ...O...O...O......",
"................ % ----====== $ ....O..+..O.......",
"................ % ---======= $ .......O..........",
"................ % -========= $ ..................",
"................ $ -========= $ ..................",
"................ $ ========== $ ..................",
"................ $ ========== $ ..................",
"................ $ ========== $ ..................",
"................ $ ========== $ ..................",
"................ $ ========== $ ..................",
"......OO........ $ ========== $ ..................",
".....O++O....... $ ========== $ ..................",
"....O+**+O...... $ =========# $ ..................",
".....O++O....... $ =========# $ ..................",
"......OO........ $ =========# $ ...........O......",
"................ $ ========## $ ..........O+O.....",
"................ $ =======### $ ...........O......",
"................ $ =======##@ $ ..................",
"................ $ ======##@@ $ ..................",
"................ $ =====###@@ $ ..................",
"................ $ ====###@@@ o ..................",
"................ $ ===###@@@@ o ..................",
"................ $ =###@@@@@@ o ..................",
"............O... $            o ..................",
"...........O+O.. $$$$$$$$$ooooo ..................",
"..........O+*+O.                ..................",
"...........O+O....................................",
"............O.....................................",
"..................................................",
".....................................OO...........",
"..................................................",
"..................................................",
"..................................................",
"..................................................",
"..................................................",
"..................................................",
".................................................."
};
