/* XPM */
static char *_d557d2e244d4e9ec267fe6be0487c40S7qwjHWoxaaXhPL5[] = {
/* columns rows colors chars-per-pixel */
"50 50 2 1 ",
"  c None",
". c #FFF200",
/* pixels */
"                    ..........                    ",
"                ..................                ",
"              ......................              ",
"            ..........................            ",
"           ............................           ",
"         ................................         ",
"        ..................................        ",
"       ....................................       ",
"      ......................................      ",
"     ........................................     ",
"     ........................................     ",
"    ..........................................    ",
"   ............................................   ",
"   ............................................   ",
"  ..............................................  ",
"  ..............................................  ",
" ................................................ ",
" ................................................ ",
" ................................................ ",
" ................................................ ",
"..................................................",
"..................................................",
"..................................................",
"..................................................",
"..................................................",
"......................... ........................",
"........................   .......................",
".......................     ......................",
"......................       .....................",
".....................         ....................",
" ...................           .................. ",
" ..................             ................. ",
" .................               ................ ",
" ................                 ............... ",
"  ..............                   .............  ",
"  .............                     ............  ",
"   ...........                       ..........   ",
"   ..........                         .........   ",
"    ........                           .......    ",
"     ......                             .....     ",
"     .....                               ....     ",
"      ...                                 ..      ",
"                                                  ",
"                                                  ",
"                                                  ",
"                                                  ",
"                                                  ",
"                                                  ",
"                                                  ",
"                                                  "
};
