/* XPM */
static char *_435e8c175774674de9e6aeca204d3ebpVZpDdc953PgydKK[] = {
/* columns rows colors chars-per-pixel */
"50 50 20 1 ",
"  c black",
". c #15081D",
"X c #2D0D32",
"o c #401433",
"O c #912030",
"+ c #8F4E0D",
"@ c #B16417",
"# c #E27F1E",
"$ c #D17A23",
"% c #FC9835",
"& c #FFAE5E",
"* c #E9847F",
"= c #36848E",
"- c #50BCCA",
"; c #CDBBBE",
": c #80E1ED",
"> c #B8F7FF",
", c #EBDFE1",
"< c #F7EFF0",
"1 c white",
/* pixels */
"..................................................",
"..................................................",
"..................................................",
"..................................................",
"..................................................",
".......X...............................X..........",
"......XoX............        .......X..o..X.......",
".......X..........   &&&%%%%%   ...X...X...X......",
"................  &&&&&%%%%%%%%$  ....XoX.........",
"............... ##&&&%%%%%%%%%$$++ ..XoOoX........",
".............. ,,##%%%%%%%%%%$$++;; XoO*OoXoX.....",
"............. 11,,##%%%%%%%%$$++;;<< XoOoX........",
"............ 111<,,##%%%%%%$$++;;<<<< XoX.........",
"............ 11<<<,,@@$$$$$$++;;<<<<< .X...X......",
"........... 11<<<<<<,,@@@@@+;;;<<<<<<< o..X.......",
"........... 1<<<<<<<<        <<<<<<<<< X..........",
"........... <<<<<<<  >>::::::  <<<<<<< ...........",
"........... <<<<<< >>>::::::::: <<<<<; ...........",
"........... <<<<< >>>:::::::::-- <<<;; ...........",
"........... <<<<< ::::>:::::---= <<;;; ...........",
"........... <<<<< ::::::::----== <<;;; ...........",
"............ <<<<< ::::::---=== ;<;;; ............",
"............ <<<<<<  -----===  ;<<;;; ............",
"......XX..... <<<<<<<        ;;<<;;; .............",
".....XooX..... <<<<<<<<<<<;;;<<<;;; ..............",
"....XoOOoX..... <<<<<<<<<<<<<<<;;; ...............",
".....XooX.......  <<<<<<<<<<<<;;  ................",
"......XX........     <<<<<<<<     .........X......",
"............... << 11        ;; <; .......XoX.....",
"............... <; 1<<<<<;;;;<< ;; ........X......",
"................   1<<<<<<<<<<<   ................",
".................. 1<<<<<<<<<<; ..................",
".................. <<<<<<<<<<<; ..................",
"................. <<<<<<<<<<<<;; .................",
"................. <<<<<<<<<<<<<; .................",
".................                .................",
"............X...  &&%%%%%%%%%%%%  ................",
"...........XoX.. &&&%%%%%%%%%%%%# ................",
"..........XoOoX. &&%%%%%%%%%%%%%# ................",
"...........XoX.. &%%%%%%%@%%%%%#@ ................",
"............X... %%%%%%%@ +%%%#@+ ................",
"................ %%%%%%@  +%%#@++ ................",
"................ %%%%%@+  +%%@+++ ...XX...........",
"................ %%%%@++  %%@++++ ................",
"................                  ................",
"..................................................",
"..................................................",
"..................................................",
"..................................................",
".................................................."
};
