/* XPM */
static char *_d37241ece384b64f5707a6417dcbc63aJDqNqFU9amRyhfQ[] = {
/* columns rows colors chars-per-pixel */
"50 50 28 1 ",
"  c black",
". c #14100E",
"X c #15081D",
"o c #2D0D32",
"O c gray13",
"+ c #482801",
"@ c #573711",
"# c #5F3D16",
"$ c #703F02",
"% c #401433",
"& c #70491B",
"* c #734C1D",
"= c #7D5423",
"- c #710F75",
"; c #444444",
": c #6A6A6A",
"> c #912030",
", c #844A01",
"< c #9E5C0A",
"1 c #956C3B",
"2 c #C0771C",
"3 c #AD8350",
"4 c #E9847F",
"5 c #A11FA6",
"6 c #C230C8",
"7 c #7C8BAF",
"8 c #B0B9CF",
"9 c white",
/* pixels */
"XXXXXXXXXXXXXXXXXXXXXXXXXXXXXXXXXXXXXXXXXXXXXXXXXX",
"XXXXXXXXXXXXXXXXXXXXXXXXXXXXXXXXXXXXXXXXXXXXXXXXXX",
"XXXXXXXXXXXXXXXXXXXXXXXXXXXXXXXXXXXXXXXXXXXXXXXXXX",
"XXXXXXXXXXXXXXXXXXXXXXXXXXXXXXXXXXXXXXXXXXXXXXXXXX",
"XXXXXXXXXXXXXXXXXXXXXXXXXXXXXXXXXXXXXXXXXXXXXXXXXX",
"XXXXXXXoXXXXXXXXXXXXXXXXXXXXXXXXXXXXXXXoXXXXXXXXXX",
"XXXXXXo%oXXXXXXXXXXXXXXXXXXXXXXXXXXXoXX%XXoXXXXXXX",
"XXXXXXXoXXXXXXXXXXXXXXXXXXXXXXXXXXXoXXXoXXXoXXXXXX",
"XXXXXXXXXXXXXXXXXXXXXXXXXXXXXXXXXXXXXXo%oXXXXXXXXX",
"XXXXXXXXXXXXXXXXXXXXXXXXXXXXXXXXXXXXXo%>%oXXXXXXXX",
"XXXXXXXXXXXXXXXXXXXXXXXXXXXXXXXXXXo%o%>4>%o%oXXXXX",
"XXXXXXXXXXXXX    XXXXXXXXXXXXXXXXXXXXo%>%oXXXXXXXX",
"XXXXXXXXXX   3333 XXXXXXXXXXXXXXXXXXXXo%oXXXXXXXXX",
"XXXXXXXXX 33333311  XXXXXXXXXXXXXXXoXXXoXXXoXXXXXX",
"XXXXXXXX 33331111===    XXXXXXXXXXXXoXX%XXoXXXXXXX",
"XXXXXXXX 31111==========     XXXXXXXXXXoXXXXXXXXXX",
"XXXXXXXX 31================##  XXXXXXXXXXXXXXXXXXX",
"XXXXXXXX 22<<<<<<&=======###666 XXXXXXXXXXXXXXXXXX",
"XXXXXXXX 2<<<<<<<<&=====##655555   XXXXXXXXXXXXXXX",
"XXXXXXX :66555555<<&=<<<<<<<$$55555     XXXXXXXXXX",
"XXXXXX ::6555555-+<<&<      <<$555555--- XXXXXXXXX",
"XXXXXX ;;555-----++<&,$  XXX   .......... XXXXXXXX",
"XXXXXXX ;5@@@*==99++<<,$$ XXXXX          XXXXXXXXX",
"XXXXXXo ;5@**===988+<<<,,$ XXXXXXXXXXXXXXXXXXXXXXX",
"XXXXXo% ;5*=====8887<<<,, XoXXoXXXXXXXXXXXXXXXXXXX",
"XXXXo%> ;5**====887+<<,,$$ oXXXXXXXXXXXXXXXXXXXXXX",
"XXXXXo% ;5@@*===87+<<,$$$ o%oXX           XXXXXXXX",
"XXXXXX :;66655555+<<,$$  o%>   ........... oXXXXXX",
"XXXXXX OO6555555-+<,$$      <<$66655----  o%oXXXXX",
"XXXXXXX O5555----,,$$$$$$$$$$$66555     XXXoXXXXXX",
"XXXXXXXX 22<<<,,,$$##=====66655-   XXXXXXXXXXXXXXX",
"XXXXXXXX 2<<<,,$$$#=======#55-- XXXXXXXXXXXXXXXXXX",
"XXXXXXXX 3======##========###  XXXXXXXXXXXXXXXXXXX",
"XXXXXXXX 3==============     XXXXXXXXXXXXXXXXXXXXX",
"XXXXXXXX 33=========    XXXXXXXXXXXXXXXXXXXXXXXXXX",
"XXXXXXXXX 3=======  XXXXXXXXXXXXXXXXXXXXXXXXXXXXXX",
"XXXXXXXXXX   ==== XXXXXXXXXXXXXXXXXXXXXXXXXXXXXXXX",
"XXXXXXXXXXXo%    XXXXXXXXXXXXXXXXXXXXXXXXXXXXXXXXX",
"XXXXXXXXXXo%>%oXXXXXXXXXXXXXXXXXXXXXXXXXXXXXXXXXXX",
"XXXXXXXXXXXo%oXXXXXXXXXXXXXXXXXXXXXXXXXXXXXXXXXXXX",
"XXXXXXXXXXXXoXXXXXXXXXXXXXXXXXXXXXXXXXXXXXXXXXXXXX",
"XXXXXXXXXXXXXXXXXXXXXXXXXXXXXXXXXXXXXXXXXXXXXXXXXX",
"XXXXXXXXXXXXXXXXXXXXXXXXXXXXXXXXXXXXXooXXXXXXXXXXX",
"XXXXXXXXXXXXXXXXXXXXXXXXXXXXXXXXXXXXXXXXXXXXXXXXXX",
"XXXXXXXXXXXXXXXXXXXXXXXXXXXXXXXXXXXXXXXXXXXXXXXXXX",
"XXXXXXXXXXXXXXXXXXXXXXXXXXXXXXXXXXXXXXXXXXXXXXXXXX",
"XXXXXXXXXXXXXXXXXXXXXXXXXXXXXXXXXXXXXXXXXXXXXXXXXX",
"XXXXXXXXXXXXXXXXXXXXXXXXXXXXXXXXXXXXXXXXXXXXXXXXXX",
"XXXXXXXXXXXXXXXXXXXXXXXXXXXXXXXXXXXXXXXXXXXXXXXXXX",
"XXXXXXXXXXXXXXXXXXXXXXXXXXXXXXXXXXXXXXXXXXXXXXXXXX"
};
