/* XPM */
static char *da12e6501c7e4c1efed4dc2459f50ab5j64HAXcPStXgRDHD[] = {
/* columns rows colors chars-per-pixel */
"50 50 8 1 ",
"  c #041600",
". c #083000",
"X c #0B4100",
"o c #0F5700",
"O c #188C00",
"+ c #1DA401",
"@ c #20BC00",
"# c white",
/* pixels */
"@@@@@@@@@@@@@@@@@@@@@@@@@@@@@@@@@@@@@@@@@@@@@@@@@@",
"@++++++++++++++++++++++++++++++++++++++++++++++++@",
"@+OOOOOOOOOOOOOOOOOOOOOOOOOOOOOOOOOOOOOOOOOOOOOO+@",
"@+OooooooooooooooooooooooooooooooooooooooooooooO+@",
"@+OoXXXXXXXXXXXXXXXXXXXXXXXXXXXXXXXXXXXXXXXXXXoO+@",
"@+OoX........................................XoO+@",
"@+OoX.                                      .XoO+@",
"@+OoX.                                      .XoO+@",
"@+OoX.                                      .XoO+@",
"@+OoX.                                      .XoO+@",
"@+OoX.                                      .XoO+@",
"@+OoX.                                      .XoO+@",
"@+OoX.                                      .XoO+@",
"@+OoX.                                      .XoO+@",
"@+OoX.                                      .XoO+@",
"@+OoX.                                      .XoO+@",
"@+OoX.                       #              .XoO+@",
"@+OoX.                       ##             .XoO+@",
"@+OoX.                       ###            .XoO+@",
"@+OoX.                       ####           .XoO+@",
"@+OoX.       #####################          .XoO+@",
"@+OoX.       ######################         .XoO+@",
"@+OoX.       #######################        .XoO+@",
"@+OoX.       ########################       .XoO+@",
"@+OoX.       #########################      .XoO+@",
"@+OoX.       ########################       .XoO+@",
"@+OoX.       #######################        .XoO+@",
"@+OoX.       ######################         .XoO+@",
"@+OoX.       #####################          .XoO+@",
"@+OoX.       ####################           .XoO+@",
"@+OoX.                       ###            .XoO+@",
"@+OoX.                       ##             .XoO+@",
"@+OoX.                       #              .XoO+@",
"@+OoX.                                      .XoO+@",
"@+OoX.                                      .XoO+@",
"@+OoX.                                      .XoO+@",
"@+OoX.                                      .XoO+@",
"@+OoX.                                      .XoO+@",
"@+OoX.                                      .XoO+@",
"@+OoX.                                      .XoO+@",
"@+OoX.                                      .XoO+@",
"@+OoX.                                      .XoO+@",
"@+OoX.                                      .XoO+@",
"@+OoX.                                      .XoO+@",
"@+OoX........................................XoO+@",
"@+OoXXXXXXXXXXXXXXXXXXXXXXXXXXXXXXXXXXXXXXXXXXoO+@",
"@+OooooooooooooooooooooooooooooooooooooooooooooO+@",
"@+OOOOOOOOOOOOOOOOOOOOOOOOOOOOOOOOOOOOOOOOOOOOOO+@",
"@++++++++++++++++++++++++++++++++++++++++++++++++@",
"@@@@@@@@@@@@@@@@@@@@@@@@@@@@@@@@@@@@@@@@@@@@@@@@@@"
};
