/* XPM */
static char *_3910939f6ef4c37a1f74c2401d90a25GtCzokInChGBtELt[] = {
/* columns rows colors chars-per-pixel */
"50 50 2 1 ",
"  c None",
". c #FFF200",
/* pixels */
"                    ..........                    ",
"                ..................                ",
"              ......................              ",
"            ..........................            ",
"           ............................           ",
"         ................................         ",
"        ..................................        ",
"        ...................................       ",
"        ....................................      ",
"         ....................................     ",
"          ...................................     ",
"           ...................................    ",
"            ...................................   ",
"             ..................................   ",
"              ..................................  ",
"               .................................  ",
"                ................................. ",
"                 ................................ ",
"                  ............................... ",
"                   .............................. ",
"                    ..............................",
"                     .............................",
"                      ............................",
"                       ...........................",
"                        ..........................",
"                         .........................",
"                        ..........................",
"                       ...........................",
"                      ............................",
"                     .............................",
"                    ............................. ",
"                   .............................. ",
"                  ............................... ",
"                 ................................ ",
"                ................................  ",
"               .................................  ",
"              .................................   ",
"             ..................................   ",
"            ..................................    ",
"           ..................................     ",
"          ...................................     ",
"         ...................................      ",
"        ...................................       ",
"        ..................................        ",
"         ................................         ",
"           ............................           ",
"            ..........................            ",
"              ......................              ",
"                ..................                ",
"                    ..........                    "
};
