/* XPM */
static char *_7ac28b082db4da5e031c6b39e70b117RiV1YeOOARGoqYRg[] = {
/* columns rows colors chars-per-pixel */
"50 50 18 1 ",
"  c black",
". c #15081D",
"X c #2D0D32",
"o c #401433",
"O c #912030",
"+ c #8F4E0D",
"@ c #B16417",
"# c #D17A23",
"$ c #FC9835",
"% c #FFAE5E",
"& c #E9847F",
"* c #50BCCA",
"= c #CDBBBE",
"- c #80E1ED",
"; c #B8F7FF",
": c #EBDFE1",
"> c #F7EFF0",
", c white",
/* pixels */
"..................................................",
"..................................................",
"..................................................",
"..................................................",
"..................................................",
".......X...............................X..........",
"......XoX............        .......X..o..X.......",
".......X...........  $$$$$$$$  ....X...X...X......",
".................. %$$$$$$$$$$@ ......XoX.........",
"................  ,%%$$$$$$$$#@=  ...XoOoX........",
"................ ,,:%%$$$$$$#@==: XoXoO&OoXoX.....",
"............... ,,>>:%%$$$$#@==:>> ..XoOoX........",
".............. ,,>>>>:%$$$#@==:>>>> ..XoX.........",
".............. ,,>>>>>:$$##:::>>>>> ...X...X......",
"............. ,,>>>>>>>:##::>>>>>>>> ..o..X.......",
".............        >>>:::>>>>>>>>> ..X..........",
"............. ;;;;--- >>>>>>>>>>>>>> .............",
"............. ;;------ >>>>>>>>>>>:: .............",
"............. ;-------- >>>>>>>>>    .............",
"............. --------* >>>>>>>>  $$  ............",
"............. -------** >>>>>>>  %$$$ ............",
"............. ------** :>>>>>>  %$$$$ ............",
".............  ----** :>>>>>>> %$$$$$ ............",
"......XX......       ::>>>>>>: $$$$$$ ............",
".....XooX....... :::::>>>>>>>: $$$$$$ ............",
"....XoOOoX......  >>>>>>>>>>>: $$$$$# ............",
".....XooX......... >>>>>>>>>>: $$$$## ............",
"......XX...........  >>>>>>>>  $$$### .....X......",
"................... :        : $$$##@ ....XoX.....",
"................... >::::>>>>: $$##@+ .....X......",
"................... >>>>>>>>>: ###@++ ............",
"................... >>>>>>>>>: #@@++ .............",
"................... >>>>>>>>>:      ..............",
"................... >>>>>>>>>>   .................",
"................... >>>>>>>>>>:   ................",
"...................            ++ ................",
"............X...... %%%$$$$$$$$@+ ................",
"...........XoX..... %%$$$$$$$$$$@ ................",
"..........XoOoX.... %$$$$$$$$$$$$ ................",
"...........XoX..... %$$$$$$$$$$$# ................",
"............X...... $$$$$$$@$$$#@ ................",
"................... $$$$$$@#$$#@+ ................",
"................... #$$$$$@#$$#@+ ...XX...........",
"................... ##$$$$@$$#@++ ................",
"...................               ................",
"..................................................",
"..................................................",
"..................................................",
"..................................................",
".................................................."
};
