/* XPM */
static char *_561f99636da45b88a07dd692160f519hpSpR8R1iXtOZbnS[] = {
/* columns rows colors chars-per-pixel */
"50 50 2 1 ",
"  c None",
". c #FFF200",
/* pixels */
"                    ..........                    ",
"                ..................                ",
"              ......................              ",
"            ..........................            ",
"           ............................           ",
"         ................................         ",
"        ..................................        ",
"       ...................................        ",
"      ...................................         ",
"     ...................................          ",
"     ..................................           ",
"    ..................................            ",
"   ..................................             ",
"   .................................              ",
"  .................................               ",
"  ................................                ",
" ................................                 ",
" ...............................                  ",
" ..............................                   ",
" .............................                    ",
".............................                     ",
"............................                      ",
"...........................                       ",
"..........................                        ",
".........................                         ",
"..........................                        ",
"...........................                       ",
"............................                      ",
".............................                     ",
"..............................                    ",
" ..............................                   ",
" ...............................                  ",
" ................................                 ",
" .................................                ",
"  .................................               ",
"  ..................................              ",
"   ..................................             ",
"   ...................................            ",
"    ...................................           ",
"     ...................................          ",
"     ....................................         ",
"      ....................................        ",
"       ...................................        ",
"        ..................................        ",
"         ................................         ",
"           ............................           ",
"            ..........................            ",
"              ......................              ",
"                ..................                ",
"                    ..........                    "
};
