/* XPM */
static char *_5a77cee69b44b1f846a9b012be3ae54MaNdlhGH8Okx8Peu[] = {
/* columns rows colors chars-per-pixel */
"50 50 20 1 ",
"  c black",
". c #15081D",
"X c #2D0D32",
"o c #401433",
"O c #912030",
"+ c #8F4E0D",
"@ c #B16417",
"# c #E27F1E",
"$ c #D17A23",
"% c #FC9835",
"& c #FFAE5E",
"* c #E9847F",
"= c #36848E",
"- c #50BCCA",
"; c #CDBBBE",
": c #80E1ED",
"> c #B8F7FF",
", c #EBDFE1",
"< c #F7EFF0",
"1 c white",
/* pixels */
"..................................................",
"..................................................",
"..................................................",
"..................................................",
"..................................................",
".......X...............................X..........",
"......XoX............        .......X..o..X.......",
".......X...........  &&%%%%%%  ....X...X...X......",
".................. &&&%%%%%%$$@ ......XoX.........",
"................  1&&%%%%%%$$@@;  ...XoOoX........",
"................ 111%%%%%%$$@@;;, XoXoO*OoXoX.....",
"............... 111<,%%%%$$@@;;,,< ..XoOoX........",
".............. 111<<<,%%$$@@,,,,<<< ..XoX.........",
".............. 11<<<<<,%$@@,,<<<<<< ...X...X......",
"............. 11<<<<<<<,@@,,<<<<<<<< ..o..X.......",
"............. 11<<<<<<<<<<<<<        ..X..........",
"............. 1<<<<<<<<<<<<< >:::::: .............",
"............. <<<<<<<<<<<<< >::::::: .............",
".............    ,<<<<<<<< >>::>:::- .............",
"............  &&  ,<<<<<<< :::::::-= .............",
"............ &&%%  ,<<<<<< :::::::-= .............",
"............ &%%%%  <<<<<<< :::---== .............",
"............ &%%%%% ,<<<<<<< :-====  .............",
"......XX.... %%%%%% ,<<<<<<<,       ..............",
".....XooX... %%%%%% ,,<<<<<<<,,,, ................",
"....XoOOoX.. %%%%%# ;,<<<<<<<<<<  ................",
".....XooX... %%%%%# ;,<<<<<<<,, ..................",
"......XX.... %%%%%#  ,<<<<<<,  ............X......",
"............ %%%%## ;        < ...........XoX.....",
"............ %%###$ ;,<<<<<<<< ............X......",
"............ ###$$@ ;,<<<<<<<< ...................",
"............. #$$@@ ;,<<<<<<<< ...................",
"..............      ,<<<<<<<<< ...................",
"................. ,,<<<<<<<<<, ...................",
".................  <<<<<<<<,,, ...................",
"................  &            ...................",
"............X... &&%%%%%%%%%$$ ...................",
"...........XoX.. &%%%%%%%%%%%$ ...................",
"..........XoOoX. %%%%%%%%%%%%$ ...................",
"...........XoX.. %%%%$@%%%%%%% ...................",
"............X... %%%%%$@%%%%%$ ...................",
"................ $%%%%$@%%%%$@ ...................",
"................ $%%%%%@%%%$@+ ......XX...........",
"................ $$%%%%%%$$@++ ...................",
"................               ...................",
"..................................................",
"..................................................",
"..................................................",
"..................................................",
".................................................."
};
