/* XPM */
static char *_e19106b17474863ee107868dd849ec5wdSVLk9F4tPziaPd[] = {
/* columns rows colors chars-per-pixel */
"50 50 4 1 ",
"  c #055419",
". c #06912B",
"X c #07868F",
"o c gray94",
/* pixels */
"XXXXXXXXXXXXXXXXXXXXXXXXXXXXXXXXXXXXXXXXXXXXXXXXXX",
"XXXXXXXXXXXXXXXXXXXXXXXXXXXXXXXXXXXXXXXXXXXXXXXXXX",
"XXXXXXXXXXXXX         XXXXXX         XXXXXXXXXXXXX",
"XXXXXXXXXXXX  .......  XXXX  .......  XXXXXXXXXXXX",
"XXXXXXXXXXX  .........  XX  .........  XXXXXXXXXXX",
"XXXXXXXXXX  ...........    ...........  XXXXXXXXXX",
"XXXXXXXXX  ............................  XXXXXXXXX",
"XXXXXXXX  ..............................  XXXXXXXX",
"XXXXXXX  ................................  XXXXXXX",
"XXXXXX  ...........................oo.....  XXXXXX",
"XXXXX  .............................oo.....  XXXXX",
"XXXX  ...............................oo.....  XXXX",
"XXX  ........................................  XXX",
"XX  ..........................................  XX",
"XX ............................................ XX",
"XX ............................................ XX",
"XX ............................................ XX",
"XX ............................................ XX",
"XX ............................................ XX",
"XX ............................................ XX",
"XX ............................................ XX",
"XX ............................................ XX",
"XX ............................................ XX",
"XX ............................................ XX",
"XX ............................................ XX",
"XX ............................................ XX",
"XX ............................................ XX",
"XX ............................................ XX",
"XX ............................................ XX",
"XX ............................................ XX",
"XX ............................................ XX",
"XX ............................................ XX",
"XX ............................................ XX",
"XX  ..........................................  XX",
"XXX  ........................................  XXX",
"XXXX  ......................................  XXXX",
"XXXXX  ....................................  XXXXX",
"XXXXXX  ..................................  XXXXXX",
"XXXXXXX  ................................  XXXXXXX",
"XXXXXXXX  ..............................  XXXXXXXX",
"XXXXXXXXX  ............................  XXXXXXXXX",
"XXXXXXXXXX  ..........................  XXXXXXXXXX",
"XXXXXXXXXXX  ........................  XXXXXXXXXXX",
"XXXXXXXXXXXX  ......................  XXXXXXXXXXXX",
"XXXXXXXXXXXXX  ....................  XXXXXXXXXXXXX",
"XXXXXXXXXXXXXX  ..................  XXXXXXXXXXXXXX",
"XXXXXXXXXXXXXXX  ................  XXXXXXXXXXXXXXX",
"XXXXXXXXXXXXXXXX                  XXXXXXXXXXXXXXXX",
"XXXXXXXXXXXXXXXXXXXXXXXXXXXXXXXXXXXXXXXXXXXXXXXXXX",
"XXXXXXXXXXXXXXXXXXXXXXXXXXXXXXXXXXXXXXXXXXXXXXXXXX"
};
