/* XPM */
static char *_536973a7d6245c19cfc567c34a699a4[] = {
/* columns rows colors chars-per-pixel */
"28 28 10 1 ",
"  c black",
". c #40310C",
"X c #6C330D",
"o c #70581B",
"O c #DF7126",
"+ c #D3A635",
"@ c #FFCC4B",
"# c #07868F",
"$ c #FFF4D8",
"% c white",
/* pixels */
"############################",
"############################",
"############%%%%############",
"##########%%oooo%%##########",
"#########%oo$$$$oo%#########",
"########%o$$@@@@$$o%########",
"#######%o$@@@@@@@@$o%#######",
"#######%o@@ %@@@@@@o%#######",
"#######%o@@  @@@@@@o%#######",
"#######%o@@  @@@@OOX%#######",
"#######%o@@@@@@@OOOOX%######",
"#######%.+@@@@@@+++.%#######",
"######%%%.+@@@@@@+.%########",
"#####%..%%.++++++.%#########",
"####%.++..++++++++.%########",
"####%o+@@@@@@++++++.%#######",
"####%o@@@@@@@@@@+++.%#######",
"####%o@@@@@@@@@@@@@o%#######",
"####%o@@@@@@@+@@@@@o%#######",
"####%..+@@@@++@@@@+.%#######",
"#####%..++++++++++..%#######",
"######%............%########",
"#######%..........%#########",
"########%XX%%%%XX%##########",
"########%OO%##%XX%##########",
"########%OOO%#%XXX%#########",
"#########%%%###%%%##########",
"############################"
};
