/* XPM */
static char *f1488d9d410a4b51cdc0c68eb3215740EwxenZEJuwTEzuYL[] = {
/* columns rows colors chars-per-pixel */
"50 50 3 1 ",
"  c #07868F",
". c #8BE5E8",
"X c #EDF7F7",
/* pixels */
"                                                  ",
"                                                  ",
"                    .........                     ",
"                 ...............                  ",
"              .....................               ",
"             .......................              ",
"           ...........................            ",
"          .............................           ",
"         .......................XX......          ",
"        .........................XX......         ",
"       ...........................XX......        ",
"      .....................................       ",
"      .....................................       ",
"     .......................................      ",
"    .........................................     ",
"    .........................................     ",
"    .........................................     ",
"   ...........................................    ",
"   ...........................................    ",
"   ...........................................    ",
"  .............................................   ",
"  .............................................   ",
"  .............................................   ",
"  .............................................   ",
"  .............................................   ",
"  .............................................   ",
"  .............................................   ",
"  .............................................   ",
"  .............................................   ",
"   ...........................................    ",
"   ...........................................    ",
"   ...........................................    ",
"    .........................................     ",
"    .........................................     ",
"    .........................................     ",
"     .......................................      ",
"      .....................................       ",
"      .....................................       ",
"       ...................................        ",
"        .................................         ",
"         ...............................          ",
"          .............................           ",
"           ...........................            ",
"             .......................              ",
"              .....................               ",
"                 ...............                  ",
"                    .........                     ",
"                                                  ",
"                                                  ",
"                                                  "
};
