/* XPM */
static char *f77f1dc68c01497d9c50e864fb41f45f[] = {
/* columns rows colors chars-per-pixel */
"50 50 5 1 ",
"  c #083B3D",
". c #0B8387",
"X c #07868F",
"o c #0D8C8C",
"O c #1DB3B5",
/* pixels */
"XXXXXXXXXXXXXXXXXXXXXXXXXXXXXXXXXXXXXXXXXXXXXXXXXX",
"XXXXXXXXXXXXXXXXXXXXXXXXXXXXXXXXXXXXXXXXXXXXXXXXXX",
"XXXXXXXXXXXXXXXXXXXXXXXXXXXXXXXXXXXXXXXXXXXXXXXXXX",
"XXXXXXXXXXXXXXXXXXXXXXXXXXXXXXXXXXXXXXXXXXXXXXXXXX",
"XXXXXXXXXXXXXXXXXXXXXXXXXXXXXXXXXXXXXXXXXXXXXXXXXX",
"XXXXXXXXXXXXXXXXXXXXXXXXXXXXXXXXXXXXXXXXXXXXXXXXXX",
"XXXXXXXXXXXXXXXXXXXXXXXXXXXXXXXXXXXXXXXXXXXXXXXXXX",
"XXXXXXXXXXXXXXXXXXXX         XXXXXXXXXXXXXXXXXXXXX",
"XXXXXXXXXXXXXXXXXX     oooooo  XXXXXXXXXXXXXXXXXXX",
"XXXXXXXXXXXXXXXX  ..  ooooooooo  XXXXXXXXXXXXXXXXX",
"XXXXXXXXXXXXXX  .... oooooooooooo  XXXXXXXXXXXXXXX",
"XXXXXXXXXXXXX  .... oo   oooooooooo XXXXXXXXXXXXXX",
"XXXXXXXXXXXX  ..... o  O     ooooooo XXXXXXXXXXXXX",
"XXXXXXXXXXX   .....   OOOOOO     oooo XXXXXXXXXXXX",
"XXXXXXXXXX O  ....   OOOOOOOOOOO  oooo XXXXXXXXXXX",
"XXXXXXXXXX O ..... OOO       OOOO    o XXXXXXXXXXX",
"XXXXXXXXX OO  ...  OO  .....    OOOO    XXXXXXXXXX",
"XXXXXXXXX O  .... O   .........  OOOO   XXXXXXXXXX",
"XXXXXXXX OO  .... O .............  OOO   XXXXXXXXX",
"XXXXXXXX OOO ...  O ....    ......  OOOO XXXXXXXXX",
"XXXXXXX OOO  ... OO ..   OOO  .....  OOOO XXXXXXXX",
"XXXXXXX OOOO  .. OO .  OOOOOOO  ....  OOO XXXXXXXX",
"XXXXXXX OOOO  ..  OO  O    OOOO ..... OOO XXXXXXXX",
"XXXXXXX OOOOO  ..  O  O ..  OOOO .... OOO XXXXXXXX",
"XXXXXXX OOOOO   ..  O    .  OOOO .... OOO XXXXXXXX",
"XXXXXXX  OOOOOO  ..      .  OOOO .... OOO XXXXXXXX",
"XXXXXXX  OOOOOOO ...  ...  OOOOO .... OOO XXXXXXXX",
"XXXXXXX   OOOOOOO  ...    OOOOOO .... OOO XXXXXXXX",
"XXXXXXX     OOOOOO  .  OOOOOOOO  .... OOO XXXXXXXX",
"XXXXXXXX .. OOOOOOO   OOOOOOOOO ..... OO XXXXXXXXX",
"XXXXXXXX ..  OOOOOOOOOOOOOOOOO  ....  OO XXXXXXXXX",
"XXXXXXXXX ..  OOOOOOOOOOOOOOOO ..... OO XXXXXXXXXX",
"XXXXXXXXX ... OOOOOOOOOOOOOO  .....  OO XXXXXXXXXX",
"XXXXXXXXXX ...   OOOOOOOOOO  ....   OO XXXXXXXXXXX",
"XXXXXXXXXX ...... O   O     ....  OOOO XXXXXXXXXXX",
"XXXXXXXXXXX ......      ........ OOOO XXXXXXXXXXXX",
"XXXXXXXXXXXX .......    .......  OOO XXXXXXXXXXXXX",
"XXXXXXXXXXXXX ...............   OOO XXXXXXXXXXXXXX",
"XXXXXXXXXXXXXX  ............  OOO  XXXXXXXXXXXXXXX",
"XXXXXXXXXXXXXXXX  ....       OO  XXXXXXXXXXXXXXXXX",
"XXXXXXXXXXXXXXXXXX     OOOOOO  XXXXXXXXXXXXXXXXXXX",
"XXXXXXXXXXXXXXXXXXXX         XXXXXXXXXXXXXXXXXXXXX",
"XXXXXXXXXXXXXXXXXXXXXXXXXXXXXXXXXXXXXXXXXXXXXXXXXX",
"XXXXXXXXXXXXXXXXXXXXXXXXXXXXXXXXXXXXXXXXXXXXXXXXXX",
"XXXXXXXXXXXXXXXXXXXXXXXXXXXXXXXXXXXXXXXXXXXXXXXXXX",
"XXXXXXXXXXXXXXXXXXXXXXXXXXXXXXXXXXXXXXXXXXXXXXXXXX",
"XXXXXXXXXXXXXXXXXXXXXXXXXXXXXXXXXXXXXXXXXXXXXXXXXX",
"XXXXXXXXXXXXXXXXXXXXXXXXXXXXXXXXXXXXXXXXXXXXXXXXXX",
"XXXXXXXXXXXXXXXXXXXXXXXXXXXXXXXXXXXXXXXXXXXXXXXXXX",
"XXXXXXXXXXXXXXXXXXXXXXXXXXXXXXXXXXXXXXXXXXXXXXXXXX"
};
