/* XPM */
static char *e8825dd25b624bd6903c46975214db4fAmNW0taB46AU99dD[] = {
/* columns rows colors chars-per-pixel */
"50 50 2 1 ",
"  c None",
". c #FFF200",
/* pixels */
"                                                  ",
"                                                  ",
"                                                  ",
"                                                  ",
"                                                  ",
"                                                  ",
"                                                  ",
"                                                  ",
"      ..                                 ...      ",
"     ....                               .....     ",
"     .....                             ......     ",
"    .......                           ........    ",
"   .........                         ..........   ",
"   ..........                       ...........   ",
"  ............                     .............  ",
"  .............                   ..............  ",
" ...............                 ................ ",
" ................               ................. ",
" .................             .................. ",
" ..................           ................... ",
"....................         .....................",
".....................       ......................",
"......................     .......................",
".......................   ........................",
"........................ .........................",
"..................................................",
"..................................................",
"..................................................",
"..................................................",
"..................................................",
" ................................................ ",
" ................................................ ",
" ................................................ ",
" ................................................ ",
"  ..............................................  ",
"  ..............................................  ",
"   ............................................   ",
"   ............................................   ",
"    ..........................................    ",
"     ........................................     ",
"     ........................................     ",
"      ......................................      ",
"       ....................................       ",
"        ..................................        ",
"         ................................         ",
"           ............................           ",
"            ..........................            ",
"              ......................              ",
"                ..................                ",
"                    ..........                    "
};
