/* XPM */
static char *e492345660e849db850c8f934ac49b01p1PutMIolUegI9an[] = {
/* columns rows colors chars-per-pixel */
"50 50 14 1 ",
"  c black",
". c #15081D",
"X c #2D0D32",
"o c #401433",
"O c #912030",
"+ c #8F4E0D",
"@ c #B16417",
"# c #E27F1E",
"$ c #FC9835",
"% c #FFAE5E",
"& c #E9847F",
"* c #CDBBBE",
"= c #F7EFF0",
"- c white",
/* pixels */
"..................................................",
"..................................................",
"..................................................",
"..................................................",
"..................................................",
".......X...............................X..........",
"......XoX............        .......X..o..X.......",
".......X..........   ========   ...X...X...X......",
"................  ---===========  ....XoX.........",
"............... ----============== ..XoOoX........",
".............. ----================ XoO&OoXoX.....",
"............. ---=================== XoOoX........",
"............ --====================== XoX.........",
"............ -======================= .X...X......",
"........... ========================== o..X.......",
"........... ========================== X..........",
"........... ========================== ...........",
"........... ========================== ...........",
"........... =========        ========= ...........",
"........... ======== $$$$$$$$ ======** ...........",
"........... ======== $$$$$$$$ =====*** ...........",
"............ ======= $$$$$$$$ =====** ............",
"............ ======= $$$$$$$$ ====*** ............",
"......XX..... ====== $$$$$$$$ *==*** .............",
".....XooX..... ===== $$$$$$$$ *=*** ..............",
"....XoOOoX..... ==== #$$$$$$# **** ...............",
".....XooX.......  == @#$$$$#@ **  ................",
"......XX........     @@####@@     .........X......",
"............... == - @@@@@@@@ * =* .......XoX.....",
"............... =* - @@@@@@@@ = ** ........X......",
"................   - +@@@@@@+ =   ................",
".................. - ++++++++ * ..................",
".................. ==        =* ..................",
"................. ============** .................",
"................. =============* .................",
".................                .................",
"............X...  %%$$$$$$$$$$$$  ................",
"...........XoX.. %%%$$$$$$$$$$$$# ................",
"..........XoOoX. %%$$$$$$$$$$$$$# ................",
"...........XoX.. %$$$$$$$@$$$$$#@ ................",
"............X... $$$$$$$@ +$$$#@+ ................",
"................ $$$$$$@  +$$#@++ ................",
"................ $$$$$@+  +$$@+++ ...XX...........",
"................ $$$$@++  $$@++++ ................",
"................                  ................",
"..................................................",
"..................................................",
"..................................................",
"..................................................",
".................................................."
};
