/* XPM */
static char *fae8efacd6144ae0f8f6d8a8a869c4e7ULLBSsHCNL0L4GE0[] = {
/* columns rows colors chars-per-pixel */
"50 50 12 1 ",
"  c black",
". c #15081D",
"X c #150B26",
"o c #2D0D32",
"O c #231934",
"+ c #401433",
"@ c #211041",
"# c #2A1946",
"$ c #3C285F",
"% c #51387D",
"& c #912030",
"* c #E9847F",
/* pixels */
"..................................................",
"..................................................",
"..................................................",
"..................................................",
"..................................................",
".......o...............................o..........",
"......o+o...........  ..............o..+..o.......",
".......o.........   % .............o...o...o......",
"................. %%% ................o+o.........",
"...............  %%% ....          ..o+&+o........",
"............... %%% ..   %%%%%%%%% +o+&*&+o+o.....",
"............... %%%   %%%%%%%%    ...o+&+o........",
".............. %%%%%%%%%@@@%%    .....o+o.........",
".............. %%@%%%%@@@%%%%%%%%   ...o...o......",
"........   .. %%%@%%%%%%%%%%%%%%%%%%  .+..o.......",
"........ %% . %%@@%%$$$$$$$$$$$%%@@%%% o..........",
"........ %% . %@@%%$$#########$$%%@@@% ...........",
"........ %%  %%@%%%$##XXXXXXX##$$%%%%%%  .........",
"........ %%  %%@%$$$#XXXXXXXXX##$%%%%%%%% ........",
"........ %%% %%%$$##XXXXXXXXXXX#$$%%%  %%% .......",
"........ %@%%%%%$##XXXOXXXXXXXXX#$$%%    % .......",
"........ %@%%%%$$#XXXOOXXXXXXXXXX#$$%  . %% ......",
"........ %%@%%%$$#XXXOXXXXXXXXXXXX#$%% ..   ......",
"......oo %%@%%%$$#XXXOXXXXXXXXOXXX#$%%  ..........",
".....o++  %%%%%$$#XXXXXXXXXXXXXOXX#$%%% ..........",
"....o+&&+ %%%%%$$#XXXXXXXXOXXXXOXX#$%%%  .........",
".....o     %%@%%$#XXXXXXXOXXXXXXX#$$%%%% .........",
"...... % .  %%@%$$#XXXXXXOXXXXXXX#$%%%@%  .o......",
"...... %  . %%%%%$$#XXXXXOXXXXXX#$$%%%@@% o+o.....",
"...... %%    %%%%%$#XXXXXOXXXXXX#$$%%%%@% .o......",
"......  %%   %%%%%$$#XXXXXXXXXX##$$%% %%% ........",
"....... %%%@%%%%%%%$###XXXXXX##$$$%%%  %% ........",
".......  %%@@@%%@%%$$$#######$$$%%%%%  %% ........",
"........   %%@@%%%%%%$$$$$$$$$%%%%@%   %% ........",
"..........  %%%%%%@@%%%%%%%%%%%%@@%% . %  ........",
"...........   %%%%%@@@%%%%%%%%%%%%%  .   .........",
"............o       %%%%%%@@%%%%%%% ..............",
"...........o+o...   %%%%%%@%   %%% ...............",
"..........o+&+    %%%%%%%%%   %%  ................",
"...........o+o %%%%%%%      %%%  .................",
"............o. %%%%%   .   %@%  ..................",
"..............       ... %%%   ...................",
"........................  %  ........oo...........",
".........................   ......................",
"..................................................",
"..................................................",
"..................................................",
"..................................................",
"..................................................",
".................................................."
};
